<?xml version="1.0" encoding="iso-8859-1"?>
<!-- Uploaded to: SVG Repo, www.svgrepo.com, Generator: SVG Repo Mixer Tools -->
<svg fill="#000000" height="800px" width="800px" version="1.1" id="Layer_1" xmlns="http://www.w3.org/2000/svg" xmlns:xlink="http://www.w3.org/1999/xlink" 
	 viewBox="0 0 512.005 512.005" xml:space="preserve">
<g>
	<g>
		<g>
			<path d="M256.003,153.603c-56.465,0-102.4,45.935-102.4,102.4s45.935,102.4,102.4,102.4s102.4-45.935,102.4-102.4
				S312.468,153.603,256.003,153.603z M256.003,179.203c4.71,0,8.533,3.823,8.533,8.533s-3.823,8.533-8.533,8.533
				c-4.71,0-8.533-3.823-8.533-8.533S251.292,179.203,256.003,179.203z M187.736,264.536c-4.71,0-8.533-3.823-8.533-8.533
				c0-4.71,3.823-8.533,8.533-8.533s8.533,3.823,8.533,8.533C196.269,260.713,192.446,264.536,187.736,264.536z M213.763,310.309
				c-3.328,3.328-8.73,3.328-12.066,0c-3.328-3.337-3.328-8.738,0-12.066c3.337-3.337,8.738-3.337,12.066,0
				C217.099,301.571,217.099,306.972,213.763,310.309z M213.763,213.763c-3.328,3.337-8.73,3.337-12.066,0
				c-3.328-3.328-3.328-8.73,0-12.066c3.337-3.336,8.738-3.336,12.066,0C217.099,205.033,217.099,210.435,213.763,213.763z
				 M256.003,332.803c-4.71,0-8.533-3.823-8.533-8.533s3.823-8.533,8.533-8.533c4.71,0,8.533,3.823,8.533,8.533
				S260.713,332.803,256.003,332.803z M256.003,290.136c-18.825,0-34.133-15.309-34.133-34.133
				c0-18.825,15.309-34.133,34.133-34.133c18.825,0,34.133,15.309,34.133,34.133C290.136,274.827,274.827,290.136,256.003,290.136z
				 M310.309,310.309c-3.337,3.328-8.738,3.328-12.066,0c-3.337-3.337-3.337-8.738,0-12.066c3.328-3.337,8.73-3.337,12.066,0
				C313.637,301.571,313.637,306.972,310.309,310.309z M310.309,213.763c-3.337,3.337-8.738,3.337-12.066,0
				c-3.337-3.328-3.337-8.73,0-12.066c3.328-3.336,8.73-3.336,12.066,0C313.637,205.033,313.637,210.435,310.309,213.763z
				 M332.803,256.003c0,4.71-3.823,8.533-8.533,8.533s-8.533-3.823-8.533-8.533c0-4.71,3.823-8.533,8.533-8.533
				S332.803,251.292,332.803,256.003z"/>
			<path d="M495.252,259.902c-2.773-0.589-3.183-2.697-3.183-3.9c0-1.203,0.41-3.311,3.183-3.9
				c10.778-2.253,17.775-11.836,16.631-22.767c-1.143-10.94-9.958-18.867-21.035-18.867h-0.026h-0.009
				c-2.833,0-3.678-1.98-3.917-3.166c-0.256-1.178-0.282-3.319,2.313-4.463c10.069-4.437,14.933-15.249,11.563-25.711
				c-3.379-10.47-13.662-16.384-24.661-14.089c-2.782,0.606-4.019-1.186-4.514-2.295c-0.486-1.101-0.956-3.183,1.425-4.89
				c8.926-6.417,11.435-17.997,5.982-27.529c-5.487-9.566-16.777-13.278-27.238-8.619c-2.594,1.135-4.181-0.333-4.898-1.323
				c-0.7-0.973-1.596-2.91,0.495-5.205c7.39-8.124,7.441-19.959,0.128-28.151c-7.339-8.218-19.149-9.498-28.604-2.671
				c-2.313,1.681-4.164,0.538-5.077-0.282c-0.887-0.811-2.167-2.517-0.503-5.367c5.538-9.489,3.123-21.077-5.743-27.571
				c-8.892-6.519-20.71-5.316-28.663,3.473c-1.903,2.099-3.959,1.382-5.018,0.768c-1.041-0.597-2.654-2.014-1.553-5.35
				c3.43-10.428-1.357-21.265-11.383-25.762c-10.035-4.506-21.359-0.879-26.889,8.653l-0.486,0.836
				c-1.425,2.44-3.575,2.167-4.736,1.792c-1.143-0.375-3.021-1.417-2.731-4.207l0.102-0.896c1.169-10.914-5.786-20.506-16.538-22.81
				c-10.743-2.287-21.052,3.61-24.474,14.071l-0.316,0.973c-0.87,2.671-3.029,2.859-4.241,2.739
				c-1.203-0.128-3.277-0.759-3.567-3.533l-0.102-1.024c-1.143-10.931-9.958-18.859-20.966-18.859
				c-11.008,0-19.823,7.927-20.966,18.867l-0.102,0.998c-0.29,2.79-2.364,3.422-3.567,3.55c-1.203,0.128-3.371-0.068-4.241-2.731
				l-0.324-0.99c-3.413-10.453-13.73-16.358-24.465-14.063c-10.752,2.304-17.707,11.895-16.538,22.81l0.102,0.905
				c0.29,2.782-1.587,3.823-2.731,4.198c-1.161,0.384-3.319,0.657-4.727-1.775l-0.503-0.862c-5.53-9.515-16.836-13.15-26.88-8.644
				c-10.027,4.497-14.814,15.334-11.153,26.445c0.87,2.654-0.742,4.07-1.783,4.668c-1.058,0.623-3.115,1.34-5.581-1.391
				c-7.39-8.149-19.209-9.361-28.1-2.85c-8.866,6.494-11.281,18.082-5.487,28.006c1.408,2.415,0.128,4.122-0.759,4.932
				c-0.922,0.819-2.782,1.937-5.589-0.094c-8.943-6.46-20.753-5.171-28.092,3.046c-7.313,8.192-7.262,20.028,0.333,28.382
				c1.886,2.065,0.99,4.002,0.29,4.975c-0.717,0.981-2.313,2.466-5.282,1.152c-10.078-4.471-21.376-0.768-26.854,8.789
				c-5.453,9.532-2.944,21.111,6.084,27.597c2.278,1.638,1.809,3.721,1.323,4.821c-0.495,1.109-1.741,2.876-4.727,2.253
				c-10.786-2.295-21.069,3.661-24.448,14.131c-3.371,10.462,1.493,21.274,11.58,25.719c2.577,1.135,2.551,3.277,2.295,4.454
				c-0.239,1.186-1.084,3.166-3.985,3.166h-0.009c-11.136-0.324-19.849,7.927-20.992,18.867
				c-1.143,10.931,5.854,20.514,16.631,22.767c2.773,0.589,3.183,2.697,3.183,3.9c0,1.203-0.41,3.311-3.183,3.9
				c-10.778,2.253-17.775,11.836-16.631,22.767c1.143,10.94,9.958,18.867,21.035,18.867h0.026h0.009c2.833,0,3.678,1.98,3.917,3.166
				c0.256,1.178,0.282,3.319-2.313,4.463c-10.069,4.437-14.933,15.249-11.563,25.711c3.379,10.47,13.662,16.393,24.661,14.089
				c2.816-0.597,4.019,1.186,4.514,2.295c0.486,1.101,0.956,3.183-1.425,4.89c-8.926,6.417-11.435,17.997-5.982,27.529
				c5.478,9.557,16.768,13.252,27.238,8.619c2.569-1.152,4.181,0.333,4.898,1.323c0.7,0.973,1.596,2.91-0.495,5.205
				c-7.39,8.124-7.441,19.959-0.128,28.151c7.339,8.218,19.157,9.515,28.604,2.671c2.321-1.664,4.181-0.529,5.077,0.282
				c0.888,0.811,2.167,2.517,0.503,5.367c-5.538,9.489-3.123,21.077,5.743,27.571c8.883,6.511,20.71,5.316,28.664-3.473
				c1.903-2.108,3.959-1.391,5.018-0.768c1.041,0.597,2.654,2.014,1.553,5.35c-3.43,10.428,1.357,21.265,11.383,25.762
				c10.044,4.506,21.359,0.879,26.889-8.653l0.486-0.836c1.417-2.441,3.558-2.185,4.736-1.792c1.143,0.375,3.021,1.417,2.731,4.207
				l-0.102,0.896c-1.169,10.914,5.786,20.506,16.538,22.81s21.06-3.61,24.474-14.071l0.316-0.973c0.87-2.671,3.029-2.85,4.241-2.739
				c1.203,0.128,3.277,0.76,3.567,3.533l0.102,1.024c1.143,10.931,9.958,18.859,20.966,18.859c11.008,0,19.823-7.927,20.966-18.867
				l0.102-0.998c0.29-2.79,2.364-3.422,3.567-3.55c1.22-0.102,3.371,0.068,4.241,2.731l0.324,0.99
				c3.405,10.453,13.696,16.35,24.465,14.063c10.752-2.304,17.707-11.896,16.538-22.81l-0.102-0.905
				c-0.29-2.782,1.587-3.823,2.731-4.198c1.169-0.375,3.328-0.649,4.727,1.775l0.503,0.862c5.521,9.515,16.845,13.15,26.88,8.644
				c10.027-4.497,14.814-15.334,11.153-26.445c-0.87-2.654,0.742-4.07,1.783-4.668c1.058-0.623,3.115-1.34,5.581,1.391
				c7.381,8.158,19.217,9.361,28.1,2.85c8.866-6.494,11.281-18.082,5.487-28.006c-1.408-2.415-0.128-4.122,0.759-4.932
				c0.913-0.819,2.773-1.937,5.589,0.094c8.943,6.46,20.753,5.171,28.092-3.046c7.313-8.192,7.262-20.028-0.333-28.382
				c-1.886-2.065-0.99-4.002-0.29-4.975c0.708-0.99,2.295-2.475,5.282-1.152c10.078,4.471,21.376,0.777,26.854-8.789
				c5.453-9.532,2.944-21.112-6.084-27.597c-2.278-1.638-1.809-3.721-1.323-4.821c0.495-1.109,1.732-2.884,4.727-2.253
				c10.786,2.295,21.069-3.661,24.448-14.131c3.371-10.462-1.493-21.274-11.58-25.719c-2.577-1.135-2.551-3.277-2.295-4.454
				c0.239-1.186,1.084-3.166,3.985-3.166c-0.009,0,0.017,0,0.034,0c11.008,0,19.823-7.927,20.966-18.867
				C513.027,271.738,506.029,262.155,495.252,259.902z M256.003,375.469c-65.877,0-119.467-53.589-119.467-119.467
				c0-65.877,53.589-119.467,119.467-119.467c65.877,0,119.467,53.589,119.467,119.467
				C375.469,321.88,321.88,375.469,256.003,375.469z"/>
			<path d="M256.003,238.936c-9.412,0-17.067,7.654-17.067,17.067c0,9.412,7.654,17.067,17.067,17.067
				c9.412,0,17.067-7.654,17.067-17.067C273.069,246.59,265.415,238.936,256.003,238.936z"/>
		</g>
	</g>
</g>
</svg>